# xmcd
#
# Track frame offsets: 
#        150
#        18431
#        40034
#        59400
#        79629
#        98735
#        119392
#        136981
#        150712
#        170744
#        190262
#        207088
#        230873
#        249987
#        266073
#        282925
#        301557
#        321837
#        339290
#
# Disc length: 4751 seconds
#
# Revision: 1
# Processed by: cddbd v1.5.2PL0 Copyright (c) Steve Scherf et al.
# Submitted via: ExactAudioCopy v0.90b4
#
DISCID=03128d13
DTITLE=Seal - Hits
DYEAR=2009
DGENRE=Pop
TTITLE0=I Am Your Man
TTITLE1=Kiss From A Rose
TTITLE2=Killer
TTITLE3=Crazy
TTITLE4=Fly Like An Eagle
TTITLE5=Love's Divine
TTITLE6=A Change Is Gonna Come
TTITLE7=Amazing
TTITLE8=Get It Together
TTITLE9=Future Love Paradise
TTITLE10=My Vision (featuring Jakatta)
TTITLE11=The Right Life
TTITLE12=Prayer For The Dying
TTITLE13=I Can't Stand The Rain
TTITLE14=Waiting For You
TTITLE15=The Beginning
TTITLE16=Don't Cry
TTITLE17=It's A Man's Man's Man's World
TTITLE18=Thank You
EXTD=
EXTT0=
EXTT1=
EXTT2=
EXTT3=
EXTT4=
EXTT5=
EXTT6=
EXTT7=
EXTT8=
EXTT9=
EXTT10=
EXTT11=
EXTT12=
EXTT13=
EXTT14=
EXTT15=
EXTT16=
EXTT17=
EXTT18=
PLAYORDER=
